/* XPM */
static char *graphic[] = {
/* width height num_colors chars_per_pixel */
"16 16 84 1", 
/* colors */
"  c None",
". c #899582",
"X c #93A98D",
"o c #CDA274",
"O c #8D9989",
"+ c #A8A6B3",
"@ c #488D64",
"# c #719E75",
"$ c #5C9A6E",
"% c #8B879D",
"& c #70A682",
"* c #70A884",
"= c #96AC8E",
"- c #D4E3C4",
"; c #90BA8C",
": c #554D76",
"> c #554A68",
", c #96BA85",
"< c #918CA7",
"1 c #B5D1A2",
"2 c #94A98D",
"3 c #5A5379",
"4 c #6E9C70",
"5 c #909C8C",
"6 c #B3CE9F",
"7 c #C7DCB5",
"8 c #68A172",
"9 c #372D5A",
"0 c #BDD3A9",
"q c #41895E",
"w c #C6D9AE",
"e c #6DA27D",
"r c #DBE8CB",
"t c #6AA383",
"y c #CBDCBA",
"u c #92BB94",
"i c #6AA479",
"p c #96BD98",
"a c #7AAD7D",
"s c #AD9385",
"d c #2C2255",
"f c #7AAE8A",
"g c #3D895F",
"h c #8CB072",
"j c #9690AD",
"k c #C4AA59",
"l c #928CA8",
"z c #382F5C",
"x c #73A077",
"c c #D4E4C3",
"v c #CADBB7",
"b c #ACA9B8",
"n c #79AD86",
"m c #55946B",
"M c #A8B794",
"N c #463F67",
"B c #342B59",
"V c #E4AE6F",
"C c #9BC091",
"Z c #8CB788",
"A c #6D627C",
"S c #86809C",
"D c #A7C590",
"F c #71A982",
"G c #7EAF88",
"H c #879185",
"J c #8F8AA6",
"K c #8D87A3",
"L c #B4C487",
"P c #2E2455",
"I c #76728C",
"U c #89839E",
"Y c #ABC999",
"T c #6EA687",
"R c #599367",
"E c #8A9486",
"W c #A88772",
"Q c #75AA7E",
"! c #539265",
"~ c #CFA173",
"^ c #76A984",
"/ c #B3CDA3",
"( c #73A97D",
") c #93BC91",
/* pixels */
"                ",
"                ",
"                ",
"     s>zBN%     ",
"    W9ddddPI    ",
"   VA::::::3    ",
"   ~S<lllllKb   ",
"   oUjjjjjjJ+   ",
" 7Lk.EX52=OHM1  ",
"c(Ch!#qx@g4Rai; ",
"-Q*&$&metT^FFfGr",
" y/6ZD8,up)nY0v ",
"          wY    ",
"                ",
"                ",
"                "
};
